<?xml version="1.0" encoding="utf-8"?>
<!-- Generator: Adobe Illustrator 24.0.1, SVG Export Plug-In . SVG Version: 6.00 Build 0)  -->
<svg version="1.1" id="Layer_1" xmlns="http://www.w3.org/2000/svg" xmlns:xlink="http://www.w3.org/1999/xlink" x="0px" y="0px"
	 viewBox="0 0 1200 1200" style="enable-background:new 0 0 1200 1200;" xml:space="preserve">
<style type="text/css">
	.st0{fill:#FAB15B;}
	.st1{fill:#78C17E;}
	.st2{fill:#F4EEB8;}
	.st3{fill:#27D5CF;}
	.st4{fill:#C3F4D7;}
	.st5{fill:#E3FFEE;}
	.st6{fill:#EDDE8A;}
	.st7{fill:#FFFDD7;}
	.st8{fill:#FFFFFF;}
</style>
<g>
	<path class="st0" d="M457.8,742.2c-40.5-9.9-79-30.4-110.7-62c-17.9-17.9-33.5-46.3-47.1-80.2c-55.9,140.1-76.3,376.2-76.3,376.2
		s236.2-20.4,376.2-76.3c-33.9-13.5-62.3-29.1-80.2-47.1C488.2,821.2,467.7,782.7,457.8,742.2z"/>
	<path class="st1" d="M899.9,600c-13.5,33.9-29.1,62.3-47.1,80.2c-31.7,31.7-70.1,52.2-110.7,62c-9.9,40.5-30.4,79-62,110.7
		c-17.9,17.9-46.3,33.5-80.2,47.1c140.1,55.9,376.2,76.3,376.2,76.3S955.9,740.1,899.9,600z"/>
	<path class="st2" d="M742.2,742.2c-47,11.4-96.8,8.4-142.2-9.5c-45.4,17.9-95.2,20.9-142.2,9.5c9.9,40.5,30.4,79,62,110.7
		c17.9,17.9,46.3,33.5,80.2,47.1c33.9-13.5,62.3-29.1,80.2-47.1C711.8,821.2,732.3,782.7,742.2,742.2z"/>
	<path class="st3" d="M742.2,457.8c40.5,9.9,79,30.4,110.7,62c17.9,17.9,33.5,46.3,47.1,80.2c55.9-140.1,76.3-376.2,76.3-376.2
		S740.1,244.1,600,300.1c33.9,13.5,62.3,29.1,80.2,47.1C711.8,378.8,732.3,417.3,742.2,457.8z"/>
	<path class="st4" d="M742.2,457.8c11.4,47,8.4,96.8-9.5,142.2c17.9,45.4,20.9,95.2,9.5,142.2c40.5-9.9,79-30.4,110.7-62
		c17.9-17.9,33.5-46.3,47.1-80.2c-13.5-33.9-29.1-62.3-47.1-80.2C821.2,488.2,782.7,467.7,742.2,457.8z"/>
	<path class="st5" d="M732.7,600c-11.5,29.2-28.9,56.6-52.5,80.2c-23.6,23.6-51,41-80.2,52.5c45.4,17.9,95.2,20.9,142.2,9.5
		C753.6,695.2,750.6,645.4,732.7,600z"/>
	<path class="st6" d="M457.8,457.8c9.9-40.5,30.4-79,62-110.7c17.9-17.9,46.3-33.5,80.2-47.1c-140.1-55.9-376.2-76.3-376.2-76.3
		s20.4,236.2,76.3,376.2c13.5-33.9,29.1-62.3,47.1-80.2C378.8,488.2,417.3,467.7,457.8,457.8z"/>
	<path class="st2" d="M457.8,742.2c-11.4-47-8.4-96.8,9.5-142.2c-17.9-45.4-20.9-95.2-9.5-142.2c-40.5,9.9-79,30.4-110.7,62
		c-17.9,17.9-33.5,46.3-47.1,80.2c13.5,33.9,29.1,62.3,47.1,80.2C378.8,711.8,417.3,732.3,457.8,742.2z"/>
	<path class="st7" d="M467.3,600c-17.9,45.4-20.9,95.2-9.5,142.2c47,11.4,96.8,8.4,142.2-9.5c-29.2-11.5-56.6-28.9-80.2-52.5
		C496.2,656.6,478.8,629.2,467.3,600z"/>
	<path class="st4" d="M457.8,457.8c47-11.4,96.8-8.4,142.2,9.5c45.4-17.9,95.2-20.9,142.2-9.5c-9.9-40.5-30.4-79-62-110.7
		c-17.9-17.9-46.3-33.5-80.2-47.1c-33.9,13.5-62.3,29.1-80.2,47.1C488.2,378.8,467.7,417.3,457.8,457.8z"/>
	<path class="st7" d="M600,467.3c-45.4-17.9-95.2-20.9-142.2-9.5c-11.4,47-8.4,96.8,9.5,142.2c11.5-29.2,28.9-56.6,52.5-80.2
		C543.4,496.2,570.8,478.8,600,467.3z"/>
	<path class="st5" d="M732.7,600c17.9-45.4,20.9-95.2,9.5-142.2c-47-11.4-96.8-8.4-142.2,9.5c29.2,11.5,56.6,28.9,80.2,52.5
		C703.8,543.4,721.2,570.8,732.7,600z"/>
	<path class="st8" d="M732.7,600c-11.5-29.2-28.9-56.6-52.5-80.2c-23.6-23.6-51-41-80.2-52.5c-29.2,11.5-56.6,28.9-80.2,52.5
		c-23.6,23.6-41,51-52.5,80.2c11.5,29.2,28.9,56.6,52.5,80.2c23.6,23.6,51,41,80.2,52.5c29.2-11.5,56.6-28.9,80.2-52.5
		C703.8,656.6,721.2,629.2,732.7,600z"/>
</g>
</svg>
